:SAMPLES-PER-SECOND 30
:FULLY-SPECIFIED
:DEGREES
124
root  -29.1259 39.2473 31.4702 -8.46039 -7.70967 2.37042
RightUpLeg  -20.4709 2.25616 -8.23026
RightLeg  42.0533 -6.49234 -6.5533
RightFoot  -7.25184 -0.215643 4.7121
RightToes  -1.74624e-010 0 -3.6325e-017
Spine  14.9601 0.330108 -0.466771
Spine1  0.694991 0.289953 0.0261086
HEad  -14.5759 11.8816 -8.23903
LeftShoulder1  6.78931 -9.47772 -45.5699
LeftArm  -14.4526 21.036 -30.8372
LeftForeArm  28.3558 -51.8615 -11.9975
LeftHand  -0.244104 0.0205437 5.32207
RightShoulder  5.96436 9.2537 40.5811
RightArm  7.62332 -20.9683 31.2037
RightForeArm  27.9097 65.2164 22.0818
RightHand  -0.124442 -3.92569 -8.90781
LeftUpLeg  -14.8093 8.97954 -3.99188
LeftLeg  23.5871 8.14675 4.22741
LeftFoot  -4.00073 -0.031015 0.837387
LeftToes  9.06232e-013 -1.14826e-010 3.0111e-013
125
root  -29.2672 39.7944 32.1319 -7.47758 -7.79753 1.50079
RightUpLeg  -19.2376 0.496111 -7.25336
RightLeg  30.5835 -4.0459 -2.78888
RightFoot  -5.61243 -0.25618 4.35654
RightToes  -1.74624e-010 0 -3.6325e-017
Spine  14.5266 -0.381468 1.23671
Spine1  0.176175 -0.0733669 -1.01258
HEad  -14.953 13.0626 -7.91338
LeftShoulder1  6.93732 -9.65199 -45.9612
LeftArm  -12.7394 21.1576 -29.6837
LeftForeArm  28.4662 -46.399 -9.70322
LeftHand  -0.244104 0.0205437 5.32207
RightShoulder  5.66587 8.96155 39.3509
RightArm  5.29755 -23.4314 30.6028
RightForeArm  20.1476 59.5548 17.5177
RightHand  -0.242202 -2.89988 -10.8507
LeftUpLeg  -12.452 9.21673 -2.77563
LeftLeg  20.1181 7.94499 3.43806
LeftFoot  -5.78661 0.0532073 -0.350803
LeftToes  9.06232e-013 -1.14826e-010 3.0111e-013
126
root  -29.4932 40.1008 32.8123 -6.9391 -7.53085 0.717224
RightUpLeg  -17.578 -0.575071 -6.25713
RightLeg  23.644 -1.62617 -0.969132
RightFoot  -4.77667 -0.258423 3.92366
RightToes  -1.74624e-010 0 -3.6325e-017
Spine  13.7764 -0.589918 2.66823
Spine1  0.536831 0.00192361 -1.7878
HEad  -15.3058 12.983 -7.51124
LeftShoulder1  7.10975 -9.84287 -46.4459
LeftArm  -11.1616 21.1713 -28.6591
LeftForeArm  31.0665 -42.4877 -8.17144
LeftHand  -0.244104 0.0205437 5.32207
RightShoulder  5.50659 8.83279 38.5694
RightArm  2.49661 -26.0394 29.3618
RightForeArm  12.4115 54.6826 14.9361
RightHand  -0.436674 -1.6225 -13.2432
LeftUpLeg  -10.9363 8.38836 -1.47096
LeftLeg  18.9717 8.44813 2.96646
LeftFoot  -7.45929 0.0574896 -0.352465
LeftToes  9.06232e-013 -1.14826e-010 3.0111e-013
127
root  -29.8153 40.1871 33.451 -6.95322 -6.45067 0.516037
RightUpLeg  -15.2617 -2.08032 -5.87704
RightLeg  19.9846 -0.493483 -0.401613
RightFoot  -3.34822 -0.281584 3.70767
RightToes  -1.74624e-010 0 -3.6325e-017
Spine  13.3215 -0.53542 2.7412
Spine1  1.09058 -0.0239143 -1.44611
HEad  -15.4846 12.1962 -6.95181
LeftShoulder1  7.22533 -9.92874 -46.9119
LeftArm  -10.2702 21.3678 -27.4754
LeftForeArm  32.3893 -39.8752 -7.28618
LeftHand  -0.244104 0.0205437 5.32207
RightShoulder  5.38495 8.67189 38.1757
RightArm  0.747174 -28.1255 27.8888
RightForeArm  3.65071 49.4348 12.8812
RightHand  -0.775303 0.353757 -15.7208
LeftUpLeg  -9.92626 8.31705 -0.892345
LeftLeg  19.1511 7.54963 2.63771
LeftFoot  -8.30808 0.0536582 -0.151315
LeftToes  9.06232e-013 -1.14826e-010 3.0111e-013
128
root  -30.1592 40.1158 34.0217 -7.11028 -4.55376 1.09752
RightUpLeg  -13.1009 -5.21989 -6.37063
RightLeg  18.0822 -0.115104 -0.24675
RightFoot  -0.729196 -0.245336 2.62624
RightToes  -1.74624e-010 0 -3.6325e-017
Spine  13.0831 -0.646435 1.8416
Spine1  1.4578 -0.406715 -0.616088
HEad  -15.7662 11.1712 -6.30399
LeftShoulder1  7.18454 -9.83308 -46.9814
LeftArm  -9.84158 21.7666 -25.8723
LeftForeArm  31.7018 -37.8493 -6.7515
LeftHand  -0.244104 0.0205437 5.32207
RightShoulder  5.17189 8.25878 37.9265
RightArm  0.381511 -28.8445 27.0826
RightForeArm  -2.9607 42.1596 10.3577
RightHand  -1.13035 2.5137 -16.7563
LeftUpLeg  -9.26755 8.4814 -1.29321
LeftLeg  19.4837 5.77965 2.39498
LeftFoot  -7.90293 0.0656766 -0.58363
LeftToes  9.06232e-013 -1.14826e-010 3.0111e-013
129
root  -30.4599 40.0415 34.5307 -7.3625 -2.97704 1.44301
RightUpLeg  -11.669 -7.86001 -6.61807
RightLeg  17.6015 -0.105009 -0.225581
RightFoot  1.37068 -0.0549991 0.557392
RightToes  -1.74624e-010 0 -3.6325e-017
Spine  13.329 -0.984917 2.27136
Spine1  1.60569 -0.609325 -1.04821
HEad  -16.5399 9.99943 -5.8795
LeftShoulder1  6.92097 -9.53043 -46.287
LeftArm  -9.34986 21.7444 -24.1844
LeftForeArm  29.6428 -34.8772 -6.0829
LeftHand  -0.244104 0.0205437 5.32207
RightShoulder  4.88942 7.67736 37.6945
RightArm  0.535425 -28.0491 27.0828
RightForeArm  -6.03367 32.7927 7.57068
RightHand  -1.32483 4.19906 -16.2185
LeftUpLeg  -8.63836 7.82578 -1.38057
LeftLeg  19.9293 4.97739 2.35185
LeftFoot  -7.06651 0.0818443 -1.06602
LeftToes  9.06232e-013 -1.14826e-010 3.0111e-013
130
root  -30.7326 40.1 35.0177 -7.53935 -2.49091 1.09079
RightUpLeg  -10.7316 -8.10286 -5.96389
RightLeg  17.7452 -0.405245 -0.300348
RightFoot  1.54365 0.130335 -1.07104
RightToes  -1.74624e-010 0 -3.6325e-017
Spine  13.451 -1.20533 4.34214
Spine1  1.87743 -0.2515 -2.85725
HEad  -17.248 8.76987 -5.82926
LeftShoulder1  6.49278 -9.113 -44.8069
LeftArm  -8.7064 21.0865 -22.744
LeftForeArm  26.4808 -30.0144 -5.06063
LeftHand  -0.244104 0.0205437 5.32207
RightShoulder  4.66255 7.25908 37.3005
RightArm  -0.53726 -26.9215 26.9077
RightForeArm  -6.73096 24.0168 5.63754
RightHand  -1.43875 5.5154 -15.5204
LeftUpLeg  -7.82368 6.80978 -0.644869
LeftLeg  20.1503 5.2137 2.45226
LeftFoot  -6.86507 0.0716182 -0.771973
LeftToes  9.06232e-013 -1.14826e-010 3.0111e-013
131
root  -31.0097 40.3395 35.5394 -7.13025 -2.59435 0.600143
RightUpLeg  -9.38425 -7.96564 -5.13479
RightLeg  16.2224 -0.17962 -0.0558854
RightFoot  0.854261 0.133603 -1.18897
RightToes  -1.74624e-010 0 -3.6325e-017
Spine  12.4283 -1.12269 5.89231
Spine1  2.29695 0.164691 -3.92221
HEad  -16.7103 8.12246 -5.96088
LeftShoulder1  5.92923 -8.55826 -42.6871
LeftArm  -8.47012 20.6785 -21.2
LeftForeArm  23.1328 -24.2604 -4.04493
LeftHand  -0.244104 0.0205437 5.32207
RightShoulder  4.43437 7.02672 36.1255
RightArm  -4.78845 -26.6608 25.4783
RightForeArm  -5.50019 18.7485 5.42324
RightHand  -1.59254 6.53579 -15.7237
LeftUpLeg  -6.6194 5.93783 0.179045
LeftLeg  18.6973 5.58006 2.39976
LeftFoot  -6.88276 0.0482174 -0.181412
LeftToes  9.06232e-013 -1.14826e-010 3.0111e-013
